<?xml version="1.0" encoding="utf-8"?>
<!-- Generator: Adobe Illustrator 22.1.0, SVG Export Plug-In . SVG Version: 6.00 Build 0)  -->
<svg version="1.1" id="Camada_1" xmlns="http://www.w3.org/2000/svg" xmlns:xlink="http://www.w3.org/1999/xlink" x="0px" y="0px"
	 viewBox="0 0 1901.6 508.5" style="enable-background:new 0 0 1901.6 508.5;" xml:space="preserve">
<style type="text/css">
	.st0{fill:#203047;}
	.st1{opacity:0.6;fill:#203047;enable-background:new    ;}
	.st2{fill:#1A293B;}
</style>
<g>
	<path class="st0" d="M1531.5,347.1c-217.5,88.1-361.6,14.6-448.9-10.9c-43.7-12.8-112.1-32.6-198-44.7c-28.2,6.6-56.8,14.7-86,24.5
		c-256.2,86-403.9,77.3-487.3,51.9C112.7,427.8,71.1,413.8,6.2,385.1c-4.5-2-8.6-5.6-12.3-10.7v142.2h1915.5V323.9
		c-3.7,1.7-7.7,3.5-12,5.3C1738.2,395.2,1618.4,373.4,1531.5,347.1z"/>
	<path class="st1" d="M1934.3,309.9c1.1,0.4,2.2,0.8,3.3,1.2c-0.8-0.7-1.5-1.3-2.2-2C1935,309.4,1934.7,309.7,1934.3,309.9z"/>
</g>
<path class="st2" d="M424.3,331.8c-42.5,14.3-79.9,26.3-113,36.2c83.4,25.4,231,34.1,487.3-51.9c29.1-9.8,57.8-17.9,86-24.5
	C760.7,274.1,600.3,272.7,424.3,331.8z"/>
<path class="st2" d="M1909,301.7c-124.2-35.7-255.2-5.2-372.7,43.4c-1.6,0.7-3.2,1.3-4.8,2c86.8,26.3,206.6,48.1,366-17.9
	c4.1-1.7,7.9-3.4,11.5-5V301.7z"/>
</svg>
