<?xml version="1.0" encoding="utf-8"?>
<!-- Generator: Adobe Illustrator 22.1.0, SVG Export Plug-In . SVG Version: 6.00 Build 0)  -->
<svg version="1.1" id="Camada_1" xmlns="http://www.w3.org/2000/svg" xmlns:xlink="http://www.w3.org/1999/xlink" x="0px" y="0px"
	 viewBox="0 0 1911.8 492.9" style="enable-background:new 0 0 1911.8 492.9;" xml:space="preserve">
<style type="text/css">
	.st0{fill:#665552;}
	.st1{fill:#203047;}
</style>
<g>
	<g>
		<path class="st0" d="M1611.9,292.2c65.7-22,117.6-38,159.6-49c-94.2-12.2-240.2-5.9-427.6,57c-41.6,14-82.2,24.2-121.5,31.3
			C1330.2,344,1465,341.6,1611.9,292.2z"/>
		<path class="st0" d="M611.9,280.2c13.9-5.8,27.5-10.8,40.8-15.1c-76.6-20.2-178.1-31-308.8,23.1c-23.1,9.6-46.2,18.3-69.4,25.9
			C399.1,352.5,501.7,325.9,611.9,280.2z"/>
	</g>
</g>
<g>
	<path class="st1" d="M-1-18.9v218.4c51,18.5,134.7,50.2,181,74.7c33.1,17.5,64.5,30.6,94.6,39.9c23.2-7.5,46.3-16.3,69.4-25.9
		c130.7-54.1,232.2-43.4,308.8-23.1c175.4-57.6,293.7,1.7,367.2,23.1c43.4,12.7,113.7,33.1,202.5,43.3
		c39.3-7.2,79.9-17.4,121.5-31.3c187.4-62.9,333.4-69.2,427.6-57c68.7-18,110.8-23.1,142.9-20.4V-12.9"/>
</g>
</svg>
