<?xml version="1.0" encoding="utf-8"?>
<!-- Generator: Adobe Illustrator 22.1.0, SVG Export Plug-In . SVG Version: 6.00 Build 0)  -->
<svg version="1.1" id="Camada_1" xmlns="http://www.w3.org/2000/svg" xmlns:xlink="http://www.w3.org/1999/xlink" x="0px" y="0px"
	 viewBox="0 0 1901.6 508.5" style="enable-background:new 0 0 1901.6 508.5;" xml:space="preserve">
<style type="text/css">
	.st0{fill:#F1DAB5;}
	.st1{fill:#EDEDED;}
</style>
<path class="st0" d="M424.3,331.8c-42.5,14.3-79.9,26.3-113,36.2c83.4,25.4,231,34.1,487.3-51.9c29.1-9.8,57.8-17.9,86-24.5
	C760.7,274.1,600.3,272.7,424.3,331.8z"/>
<g>
	<g>
		<path class="st1" d="M1531.5,347.1c-217.5,88.1-361.6,14.6-448.9-10.9c-43.7-12.8-112.1-32.6-198-44.7
			c-28.2,6.6-56.8,14.7-86,24.5c-256.2,86-403.9,77.3-487.3,51.9C112.7,427.8,71.1,413.8,6.2,385.1c-4.5-2-8.6-5.6-12.3-10.7v145.2
			h1915.5V323.9c-3.7,1.7-7.7,3.5-12,5.3C1738.2,395.2,1618.4,373.4,1531.5,347.1z"/>
	</g>
</g>
<path class="st0" d="M1908.3,301.5c-124-35.4-254.8-5-372,43.6c-1.6,0.7-3.2,1.3-4.8,2c86.8,26.3,206.6,48.1,366-17.9
	c3.9-1.6,7.5-3.2,10.8-4.7V301.5z"/>
</svg>
