<?xml version="1.0" encoding="utf-8"?>
<!-- Generator: Adobe Illustrator 22.1.0, SVG Export Plug-In . SVG Version: 6.00 Build 0)  -->
<svg version="1.1" id="Camada_1" xmlns="http://www.w3.org/2000/svg" xmlns:xlink="http://www.w3.org/1999/xlink" x="0px" y="0px"
	 viewBox="0 0 1901.6 430.5" style="enable-background:new 0 0 1901.6 430.5;" xml:space="preserve">
<style type="text/css">
	.st0{fill:#545668;}
	.st1{fill:none;}
	.st2{fill:#203047;}
</style>
<path class="st0" d="M1544.1,264.5c-20.1,8.3-39.5,15.2-58.3,21c62.6,10.9,140.5,10.2,235.9-29.3c51.1-21.2,102.5-38,154.1-44.5
	C1764,192.2,1648.7,221.1,1544.1,264.5z"/>
<path class="st0" d="M432.1,251.1c-18.7,6.3-36.3,12.1-53.1,17.5c8.8,3.2,18.2,6.2,28.4,8.9c64,17.1,183.3,48.3,422.6-32.1
	c36.3-12.2,71.7-21.1,106-27.5C807.4,194.7,629.5,184.8,432.1,251.1z"/>
<rect x="-2.3" y="-197.3" class="st1" width="1912" height="539"/>
<path class="st2" d="M1875.7,211.6c-51.6,6.5-103,23.3-154.1,44.5c-95.4,39.5-173.3,40.2-235.9,29.3
	c-187.9,57.1-315.4-6.5-395.4-29.9c-36-10.5-88.8-25.8-154.4-37.7c-34.3,6.4-69.8,15.3-106,27.5c-239.4,80.4-358.6,49.2-422.6,32.1
	c-10.2-2.7-19.6-5.7-28.4-8.9c-251.1,81-294.1,67.2-365,35.9c-6.5-2.8-12-9-16.7-17.9V437h1906V217.4
	C1894.1,215.1,1884.9,213.2,1875.7,211.6z"/>
</svg>
